<?xml version="1.0" encoding="utf-8"?>
<!-- Generator: Adobe Illustrator 28.0.0, SVG Export Plug-In . SVG Version: 6.00 Build 0)  -->
<svg version="1.1" id="图层_1" xmlns="http://www.w3.org/2000/svg" xmlns:xlink="http://www.w3.org/1999/xlink" x="0px" y="0px"
	 viewBox="0 0 196.59 56.56" style="enable-background:new 0 0 196.59 56.56;" xml:space="preserve">
<style type="text/css">
	.st0{clip-path:url(#SVGID_00000134930812239865523570000011895589052359836088_);}
	.st1{clip-path:url(#SVGID_00000103244558478842948480000002844936777381815212_);}
	.st2{clip-path:url(#SVGID_00000031909184221212692830000004743810914747955363_);fill:#E60012;}
	.st3{clip-path:url(#SVGID_00000052063589677192026470000016282493629599205055_);fill:#E60012;}
	.st4{clip-path:url(#SVGID_00000165214415604169268190000014642540513826469030_);fill:#E60012;}
</style>
<g>
	<defs>
		<rect id="SVGID_1_" x="5.93" y="169.7" width="320.4" height="179.52"/>
	</defs>
	<clipPath id="SVGID_00000171001210090182195210000014780955295921442463_">
		<use xlink:href="#SVGID_1_"  style="overflow:visible;"/>
	</clipPath>
	<g style="clip-path:url(#SVGID_00000171001210090182195210000014780955295921442463_);">
		<defs>
			<rect id="SVGID_00000065765805817135904780000010146829361718517896_" x="5.93" y="169.7" width="320.4" height="180"/>
		</defs>
		<clipPath id="SVGID_00000111896810642345903310000002235858291738174888_">
			<use xlink:href="#SVGID_00000065765805817135904780000010146829361718517896_"  style="overflow:visible;"/>
		</clipPath>
	</g>
</g>
<g>
	<defs>
		<rect id="SVGID_00000181780039052296147900000006552814384888789926_" x="681.05" y="277.46" width="213.12" height="71.76"/>
	</defs>
	<clipPath id="SVGID_00000037689105314325918640000017896664169975947399_">
		<use xlink:href="#SVGID_00000181780039052296147900000006552814384888789926_"  style="overflow:visible;"/>
	</clipPath>
	<g style="clip-path:url(#SVGID_00000037689105314325918640000017896664169975947399_);">
		<defs>
			<rect id="SVGID_00000113346730380087261630000015311004859887652024_" x="681.05" y="277.46" width="213.6" height="72.24"/>
		</defs>
		<clipPath id="SVGID_00000121280803098654866370000008562084804728511132_">
			<use xlink:href="#SVGID_00000113346730380087261630000015311004859887652024_"  style="overflow:visible;"/>
		</clipPath>
	</g>
</g>
<g>
	<defs>
		<rect id="SVGID_00000036946735073223707390000002516605401403038391_" x="-68.97" y="-55.78" width="842.3" height="374"/>
	</defs>
	<clipPath id="SVGID_00000099626554544476072510000009814447938054721699_">
		<use xlink:href="#SVGID_00000036946735073223707390000002516605401403038391_"  style="overflow:visible;"/>
	</clipPath>
	<path style="clip-path:url(#SVGID_00000099626554544476072510000009814447938054721699_);fill:#E60012;" d="M55.83,12.77
		c0,0,14.54-0.13,21,9.07l0,0H88.7C88.7,21.84,80.7,6.84,55.83,12.77"/>
</g>
<g>
	<defs>
		<rect id="SVGID_00000006671118503019464430000004078814231999197845_" x="-68.27" y="-55.78" width="841.6" height="374"/>
	</defs>
	<clipPath id="SVGID_00000156584904807041364840000012033699995929107874_">
		<use xlink:href="#SVGID_00000006671118503019464430000004078814231999197845_"  style="overflow:visible;"/>
	</clipPath>
	<path style="clip-path:url(#SVGID_00000156584904807041364840000012033699995929107874_);fill:#E60012;" d="M7.6,44.17L7.6,44.17
		c0-0.01,7.94-33.21,55.88-34.74c0,0-37.07,2.97-37.61,34.74h0H7.6"/>
</g>
<g>
	<defs>
		<rect id="SVGID_00000159453349284520219240000016024715626687570591_" x="-68.97" y="-55.78" width="842.3" height="374"/>
	</defs>
	<clipPath id="SVGID_00000084522839832192468530000015570203234304839566_">
		<use xlink:href="#SVGID_00000159453349284520219240000016024715626687570591_"  style="overflow:visible;"/>
	</clipPath>
	<path style="clip-path:url(#SVGID_00000084522839832192468530000015570203234304839566_);fill:#E60012;" d="M40.51,29.42h6.06
		c1.35,0,2.44,1.09,2.44,2.44v5.81c0,1.35-1.09,2.44-2.44,2.44h-6.06V29.42 M55.33,30.82c0-2.98-2.42-5.4-5.4-5.4H34.18v18.75h15.76
		c2.98,0,5.4-2.42,5.4-5.4V30.82z"/>
	<path style="clip-path:url(#SVGID_00000084522839832192468530000015570203234304839566_);fill:#E60012;" d="M73.24,30.98v7.58
		c0,0.86-0.7,1.56-1.56,1.56h-6.24c-0.86,0-1.56-0.7-1.56-1.56v-7.58c0-0.86,0.7-1.56,1.56-1.56h6.24
		C72.54,29.42,73.24,30.12,73.24,30.98 M75.15,25.42H61.97c-2.44,0-4.42,1.98-4.42,4.42v9.92c0,2.44,1.98,4.42,4.42,4.42h13.18
		c2.44,0,4.42-1.98,4.42-4.42v-9.92C79.57,27.4,77.59,25.42,75.15,25.42"/>
	
		<rect x="170.44" y="32.69" style="clip-path:url(#SVGID_00000084522839832192468530000015570203234304839566_);fill:#E60012;" width="10.58" height="4"/>
	<path style="clip-path:url(#SVGID_00000084522839832192468530000015570203234304839566_);fill:#E60012;" d="M97.47,25.42v10.32
		l-6.58-8.76c-0.74-0.99-1.9-1.57-3.13-1.57h-5.98v18.75h6.33V32.49l7.6,10.12c0.74,0.99,1.9,1.57,3.14,1.57h4.95V25.42H97.47"/>
	<path style="clip-path:url(#SVGID_00000084522839832192468530000015570203234304839566_);fill:#E60012;" d="M115.78,36.83v-4.06
		h8.92c1.23,0,2.23,1,2.23,2.23v1.83H115.78"/>
	<path style="clip-path:url(#SVGID_00000084522839832192468530000015570203234304839566_);fill:#E60012;" d="M120.6,34.97v5.2h-6.06
		c-1.35,0-2.44-1.09-2.44-2.44v-5.81c0-1.35,1.09-2.44,2.44-2.44h2.86h3.19h6.33v-4.06h-15.76c-2.98,0-5.4,2.42-5.4,5.4v7.96
		c0,2.98,2.42,5.4,5.4,5.4h13.53c1.23,0,2.23-1,2.23-2.23v-6.97H120.6"/>
	<path style="clip-path:url(#SVGID_00000084522839832192468530000015570203234304839566_);fill:#E60012;" d="M152.97,25.42v13.14
		c0,0.86-0.7,1.56-1.56,1.56h-6.24c-0.86,0-1.56-0.7-1.56-1.56V25.42h-6.33v14.33c0,2.44,1.98,4.42,4.42,4.42h13.18
		c2.44,0,4.42-1.98,4.42-4.42V25.42H152.97"/>
	<path style="clip-path:url(#SVGID_00000084522839832192468530000015570203234304839566_);fill:#E60012;" d="M183.18,40.12h-13.24
		c-1.35,0-2.44-1.09-2.44-2.44v-5.81c0-1.35,1.09-2.44,2.44-2.44h13.24v-4h-16.62c-2.98,0-5.4,2.42-5.4,5.4v7.96
		c0,2.98,2.42,5.4,5.4,5.4h16.62V40.12"/>
	<path style="clip-path:url(#SVGID_00000084522839832192468530000015570203234304839566_);fill:#E60012;" d="M128.88,39.54
		c0,0,0.28,6.66-2.21,10.08l3.94,2.34c0,0,4.45-3.57,4.59-10.86C135.38,32.91,128.88,39.54,128.88,39.54"/>
	
		<rect x="128.88" y="25.42" style="clip-path:url(#SVGID_00000084522839832192468530000015570203234304839566_);fill:#E60012;" width="6.33" height="15.67"/>
</g>
</svg>
